<?xml version="1.0" encoding="UTF-8" standalone="no"?>
<svg id="svg1848" xmlns:rdf="http://www.w3.org/1999/02/22-rdf-syntax-ns#" xmlns="http://www.w3.org/2000/svg" height="224.55" width="359.27" version="1.0" xmlns:cc="http://creativecommons.org/ns#" xmlns:dc="http://purl.org/dc/elements/1.1/">
 <metadata id="metadata1853">
  <rdf:RDF>
   <cc:Work rdf:about="">
    <dc:format>image/svg+xml</dc:format>
    <dc:type rdf:resource="http://purl.org/dc/dcmitype/StillImage"/>
    <cc:license rdf:resource="http://web.resource.org/cc/PublicDomain"/>
    <dc:title/>
    <dc:contributor>
     <cc:Agent>
      <dc:title/>
     </cc:Agent>
    </dc:contributor>
    <dc:rights>
     <cc:Agent>
      <dc:title>Public Domain</dc:title>
     </cc:Agent>
    </dc:rights>
    <dc:publisher>
     <cc:Agent>
      <dc:title/>
     </cc:Agent>
    </dc:publisher>
    <dc:date>2007-05-13</dc:date>
    <dc:creator>
     <cc:Agent>
      <dc:title>Nick Roux</dc:title>
     </cc:Agent>
    </dc:creator>
   </cc:Work>
   <cc:License rdf:about="http://web.resource.org/cc/PublicDomain">
    <cc:permits rdf:resource="http://web.resource.org/cc/Reproduction"/>
    <cc:permits rdf:resource="http://web.resource.org/cc/Distribution"/>
    <cc:permits rdf:resource="http://web.resource.org/cc/DerivativeWorks"/>
   </cc:License>
  </rdf:RDF>
 </metadata>
 <g id="layer19" transform="translate(-156.95 -621.35)">
  <path id="path3891" d="m368.52 622.07c17.659 8.9141 37.487 12.276 55.392 20.662 18.743 7.0165 35.249 18.681 51.456 30.03 9.4703 15.205 21.856 26.811 37.107 35.167 8.6772 19.335-16.773 25.032-25.328 37.652-10.195 10.211-28.153-6.0589-31.389 13.925-14.446 10.815-36.385 4.4445-49.289 18.027-13.853 5.4734-12.931 23.374-22.714 29.652-14.054-1.6489-25.835 16.751-8.1793 21.517 7.5845-1.146-1.5227-16.222 5.4481-4.3683 5.0695 18.374-20.188 25.4-33.548 19.497-18.897-14.909 24.158-12.794 14.382-29.715 5.2105-19.63-20.888-26.551-27.061-42.666-13.228-11.127-26.029-22.857-39.932-33.126-17.004-7.9246-33.248-17.549-51.755-21.244-15.89-2.0073-34.557 7.422-48.05-5.2118-9.5861-12.786-19.841-25.296-28.667-38.707-2.9226-6.6881-15-22.697-1.3477-20.34-6.5587-4.9938-10.019-22.595 4.1507-23.107 11.071 1.3895 13.965 26.559 26.953 11.047 12.554 0.39173 25.191 2.9459 37.771 7.1556 18.39 4.3217 36.163 14.544 55.593 10.734 16.858-1.2719 33.948-5.5782 45.919-18.395 9.0811-8.8497 19.884-17.402 33.088-18.184z" stroke="#000" stroke-linecap="round" stroke-width="1.4173" fill="none"/>
  <path id="path3885" d="m466.99 797.2c11.491 8.5717 29.353 31.03 8.4692 39.715-13.935-1.5995-31.183-12.322-36.695-24.882 2.4582-12.952 17.136-15.666 28.225-14.834z" stroke="#000" stroke-linecap="round" stroke-width="1.4173" fill="none"/>
  <path id="path3881" d="m387.2 807.83c8.0734 8.3414-12.824 5.2622 0 0z" stroke="#000" stroke-linecap="round" stroke-width="1.4173" fill="none"/>
  <path id="path3883" d="m441.65 803.62c-1.9676 10.056-12.119 4.5931 0 0z" stroke="#000" stroke-linecap="round" stroke-width="1.4173" fill="none"/>
  <path id="path3887" d="m438.46 793.64c3.2348 1.1641-0.80972 2.9679 2.9472 4.3647-7.1546 9.1562-14.186 0.64995-2.9472-4.3647z" stroke="#000" stroke-linecap="round" stroke-width="1.4173" fill="none"/>
  <text id="text4999" style="word-spacing:0px;letter-spacing:0px" xml:space="preserve" font-size="40px" line-height="125%" y="716.89905" x="321.45157" font-family="sans-serif" fill="#000000"><tspan id="tspan5001" y="716.89905" x="321.45157">BALI</tspan></text>
 </g>
</svg>
