<?xml version="1.0" encoding="UTF-8" standalone="no"?>
<svg id="svg3390" xmlns:rdf="http://www.w3.org/1999/02/22-rdf-syntax-ns#" style="enable-background:new" xmlns="http://www.w3.org/2000/svg" xmlns:osb="http://www.openswatchbook.org/uri/2009/osb" xml:space="preserve" height="150" width="350" version="1.1" xmlns:cc="http://creativecommons.org/ns#" xmlns:xlink="http://www.w3.org/1999/xlink" viewBox="0 0 350.00001 150" xmlns:dc="http://purl.org/dc/elements/1.1/"><metadata id="metadata3396"><rdf:RDF><cc:Work rdf:about=""><dc:format>image/svg+xml</dc:format><dc:type rdf:resource="http://purl.org/dc/dcmitype/StillImage"/><dc:title/></cc:Work></rdf:RDF></metadata><defs id="defs3394"><filter id="filter4715" style="color-interpolation-filters:sRGB" height="1.036" width="1.036" y="-0.018" x="-0.018"><feGaussianBlur id="feGaussianBlur4717" stdDeviation="0.1799998"/></filter></defs><g id="layer1" transform="translate(0 50)"><g id="g4257" transform="translate(-12 -62)"><rect id="rect4246" fill-opacity="0" transform="translate(0 .0000076294)" height="56" width="56" y="22" x="22"/><rect id="rect4490" rx="8" transform="translate(0 .0000038147)" height="40" width="40" y="30" x="30" fill="#bce2e8"/><g id="g4297" opacity=".7" transform="matrix(1.25 0 0 -1.25 -60.087 1005.5)" filter="url(#filter4715)" stroke="#00b1cc" fill="none"><g id="g4299" transform="matrix(.94025 0 0 .94025 99.908 773.18)" stroke-width=".085083"><path id="path4301" d="m0 0c-0.329-1.385-1.719-2.244-3.105-1.916-1.387 0.33-2.245 1.72-1.916 3.106 0.329 1.388 1.722 2.245 3.107 1.915 1.386-0.329 2.242-1.719 1.914-3.105" stroke="#00b1cc" stroke-width=".085083" fill="none"/></g><g id="g4303" transform="matrix(.94025 0 0 .94025 83.022 772.28)" stroke-width=".085083"><path id="path4305" d="m0 0c-0.298-1.262-1.564-2.044-2.828-1.744-1.261 0.299-2.042 1.566-1.742 2.828 0.297 1.263 1.566 2.043 2.829 1.744 1.261-0.299 2.042-1.567 1.741-2.828" stroke="#00b1cc" stroke-width=".085083" fill="none"/></g><g id="g4307" transform="matrix(.94025 0 0 .94411 95.876 767.43)" stroke-width=".084910"><path id="path4309" d="m0 0c-0.276-4.513-1.249-7.82-3.576-10.496-2.002-2.299-5.159-3.689-8.057-3.1-4.69 0.954-6.471 6.185-5.073 10.383 0.329 0.986 1.482 2.737 0.582 3.682-0.571 0.596-1.98 1.097-2.681 0.647-1.242-0.799-1.733-2.572-2.018-3.909-1.192-5.596 2.145-10.839 7.432-12.661 2.428-0.835 5.177-0.929 7.676-0.333 1.846 0.443 3.849 1.703 5.303 3.058 3.257 3.032 5.33 8.442 4.786 12.948-0.257 2.137-4.245 1.886-4.374-0.219" stroke="#00b1cc" stroke-width=".084910" fill="none"/></g></g><g id="g3409" transform="matrix(1.25 0 0 -1.25 -60.087 1005.2)" fill="#fff"><g id="g3411" transform="matrix(.94025 0 0 .94025 99.908 773.18)"><path id="path3413" d="m0 0c-0.329-1.385-1.719-2.244-3.105-1.916-1.387 0.33-2.245 1.72-1.916 3.106 0.329 1.388 1.722 2.245 3.107 1.915 1.386-0.329 2.242-1.719 1.914-3.105" fill="#fff"/></g><g id="g3415" transform="matrix(.94025 0 0 .94025 83.022 772.28)"><path id="path3417" d="m0 0c-0.298-1.262-1.564-2.044-2.828-1.744-1.261 0.299-2.042 1.566-1.742 2.828 0.297 1.263 1.566 2.043 2.829 1.744 1.261-0.299 2.042-1.567 1.741-2.828" fill="#fff"/></g><g id="g3419" transform="matrix(.94025 0 0 .94411 95.876 767.43)"><path id="path3421" d="m0 0c-0.276-4.513-1.249-7.82-3.576-10.496-2.002-2.299-5.159-3.689-8.057-3.1-4.69 0.954-6.471 6.185-5.073 10.383 0.329 0.986 1.482 2.737 0.582 3.682-0.571 0.596-1.98 1.097-2.681 0.647-1.242-0.799-1.733-2.572-2.018-3.909-1.192-5.596 2.145-10.839 7.432-12.661 2.428-0.835 5.177-0.929 7.676-0.333 1.846 0.443 3.849 1.703 5.303 3.058 3.257 3.032 5.33 8.442 4.786 12.948-0.257 2.137-4.245 1.886-4.374-0.219" fill="#fff"/></g></g></g><g id="g4354" transform="translate(222.75 15)"><rect id="rect4712" transform="translate(0 .0000038147)" height="50" width="60" y="25" x="25" fill="#bce2e8"/><g id="g4724" transform="matrix(1.25 0 0 -1.25 -60.087 1005.2)" fill="#fff"><g id="g4726" transform="matrix(.94025 0 0 .94025 99.908 773.18)"><path id="path4728" d="m0 0c-0.329-1.385-1.719-2.244-3.105-1.916-1.387 0.33-2.245 1.72-1.916 3.106 0.329 1.388 1.722 2.245 3.107 1.915 1.386-0.329 2.242-1.719 1.914-3.105" fill="#fff"/></g><g id="g4730" transform="matrix(.94025 0 0 .94025 83.022 772.28)"><path id="path4732" d="m0 0c-0.298-1.262-1.564-2.044-2.828-1.744-1.261 0.299-2.042 1.566-1.742 2.828 0.297 1.263 1.566 2.043 2.829 1.744 1.261-0.299 2.042-1.567 1.741-2.828" fill="#fff"/></g><g id="g4734" transform="matrix(.94025 0 0 .94411 95.876 767.43)"><path id="path4736" d="m0 0c-0.276-4.513-1.249-7.82-3.576-10.496-2.002-2.299-5.159-3.689-8.057-3.1-4.69 0.954-6.471 6.185-5.073 10.383 0.329 0.986 1.482 2.737 0.582 3.682-0.571 0.596-1.98 1.097-2.681 0.647-1.242-0.799-1.733-2.572-2.018-3.909-1.192-5.596 2.145-10.839 7.432-12.661 2.428-0.835 5.177-0.929 7.676-0.333 1.846 0.443 3.849 1.703 5.303 3.058 3.257 3.032 5.33 8.442 4.786 12.948-0.257 2.137-4.245 1.886-4.374-0.219" fill="#fff"/></g></g><g id="g4356" transform="matrix(1.1759 0 0 -1.1759 -57.031 957.19)" fill="#fff"><g id="g4358" transform="translate(102.68 761.14)"><path id="path4360" d="m0 0v0.652c0.321 0 0.539 0.037 0.649 0.108 0.201 0.126 0.3 0.329 0.3 0.609 0 0.216-0.071 0.393-0.217 0.527-0.142 0.139-0.327 0.208-0.553 0.208-0.212 0-0.376-0.052-0.491-0.155-0.112-0.105-0.196-0.281-0.25-0.532h-0.76c0.08 0.478 0.24 0.825 0.484 1.048 0.245 0.221 0.587 0.333 1.026 0.333 0.445 0 0.806-0.132 1.083-0.394 0.282-0.261 0.421-0.595 0.421-1.006 0-0.463-0.184-0.822-0.55-1.08 0.421-0.248 0.632-0.648 0.632-1.204 0-0.453-0.152-0.825-0.461-1.112-0.305-0.289-0.699-0.434-1.177-0.434-0.61 0-1.062 0.224-1.355 0.672-0.123 0.189-0.201 0.448-0.234 0.781h0.738c0.039-0.246 0.135-0.433 0.286-0.563 0.153-0.13 0.35-0.194 0.594-0.194 0.247 0 0.45 0.081 0.613 0.245 0.161 0.168 0.242 0.381 0.242 0.639 0 0.341-0.122 0.584-0.364 0.727-0.14 0.081-0.36 0.125-0.656 0.125" fill="#fff"/></g><g id="g4362" transform="translate(107.58 760.34)"><path id="path4364" d="m0 0c0 0.27-0.094 0.496-0.279 0.681-0.187 0.186-0.413 0.282-0.676 0.282-0.269 0-0.492-0.092-0.68-0.277-0.185-0.186-0.278-0.412-0.278-0.676s0.093-0.488 0.278-0.675c0.188-0.186 0.414-0.278 0.682-0.278 0.261 0 0.484 0.092 0.671 0.278 0.186 0.188 0.282 0.41 0.282 0.665m-0.393 3.679 0.561-0.421-1.21-1.642c0.066 0.009 0.122 0.015 0.169 0.019 0.046 0.005 0.082 0.006 0.106 0.006 0.41 0 0.765-0.157 1.066-0.47 0.297-0.311 0.445-0.684 0.445-1.122 0-0.463-0.165-0.859-0.499-1.192-0.329-0.33-0.727-0.495-1.188-0.495-0.457 0-0.862 0.163-1.206 0.489-0.339 0.324-0.507 0.711-0.507 1.156 0 0.399 0.165 0.823 0.494 1.271l1.769 2.401z" fill="#fff"/></g><g id="g4366" transform="translate(109.46 761.35)"><path id="path4368" d="m0 0c0-0.562 0.096-1.029 0.291-1.4 0.195-0.365 0.441-0.547 0.742-0.547 0.3 0 0.547 0.182 0.743 0.547 0.196 0.363 0.294 0.82 0.294 1.373 0 0.552-0.098 1.009-0.294 1.376-0.196 0.362-0.443 0.544-0.743 0.544-0.295 0-0.543-0.182-0.739-0.544-0.196-0.361-0.294-0.81-0.294-1.349m-0.753 0.003c0 0.805 0.189 1.448 0.564 1.929 0.335 0.433 0.742 0.65 1.221 0.65 0.478 0 0.886-0.217 1.222-0.65 0.375-0.481 0.562-1.135 0.562-1.964 0-0.824-0.187-1.478-0.562-1.958-0.336-0.434-0.742-0.653-1.22-0.653-0.474 0-0.884 0.219-1.223 0.653-0.375 0.48-0.564 1.144-0.564 1.993" fill="#fff"/></g></g></g><g id="g4337" transform="translate(120 15)"><rect id="rect4642" fill-opacity="0" transform="translate(0 .0000038147)" height="50" width="60" y="25" x="25"/><g id="g4372" transform="matrix(1.1759 0 0 -1.1759 -57.031 957.19)" fill="#161621"><g id="g4374" transform="translate(102.68 761.14)"><path id="path4376" d="m0 0v0.652c0.321 0 0.539 0.037 0.649 0.108 0.201 0.126 0.3 0.329 0.3 0.609 0 0.216-0.071 0.393-0.217 0.527-0.142 0.139-0.327 0.208-0.553 0.208-0.212 0-0.376-0.052-0.491-0.155-0.112-0.105-0.196-0.281-0.25-0.532h-0.76c0.08 0.478 0.24 0.825 0.484 1.048 0.245 0.221 0.587 0.333 1.026 0.333 0.445 0 0.806-0.132 1.083-0.394 0.282-0.261 0.421-0.595 0.421-1.006 0-0.463-0.184-0.822-0.55-1.08 0.421-0.248 0.632-0.648 0.632-1.204 0-0.453-0.152-0.825-0.461-1.112-0.305-0.289-0.699-0.434-1.177-0.434-0.61 0-1.062 0.224-1.355 0.672-0.123 0.189-0.201 0.448-0.234 0.781h0.738c0.039-0.246 0.135-0.433 0.286-0.563 0.153-0.13 0.35-0.194 0.594-0.194 0.247 0 0.45 0.081 0.613 0.245 0.161 0.168 0.242 0.381 0.242 0.639 0 0.341-0.122 0.584-0.364 0.727-0.14 0.081-0.36 0.125-0.656 0.125" fill="#161621"/></g><g id="g4378" transform="translate(107.58 760.34)"><path id="path4380" d="m0 0c0 0.27-0.094 0.496-0.279 0.681-0.187 0.186-0.413 0.282-0.676 0.282-0.269 0-0.492-0.092-0.68-0.277-0.185-0.186-0.278-0.412-0.278-0.676s0.093-0.488 0.278-0.675c0.188-0.186 0.414-0.278 0.682-0.278 0.261 0 0.484 0.092 0.671 0.278 0.186 0.188 0.282 0.41 0.282 0.665m-0.393 3.679 0.561-0.421-1.21-1.642c0.066 0.009 0.122 0.015 0.169 0.019 0.046 0.005 0.082 0.006 0.106 0.006 0.41 0 0.765-0.157 1.066-0.47 0.297-0.311 0.445-0.684 0.445-1.122 0-0.463-0.165-0.859-0.499-1.192-0.329-0.33-0.727-0.495-1.188-0.495-0.457 0-0.862 0.163-1.206 0.489-0.339 0.324-0.507 0.711-0.507 1.156 0 0.399 0.165 0.823 0.494 1.271l1.769 2.401z" fill="#161621"/></g><g id="g4382" transform="translate(109.46 761.35)"><path id="path4384" d="m0 0c0-0.562 0.096-1.029 0.291-1.4 0.195-0.365 0.441-0.547 0.742-0.547 0.3 0 0.547 0.182 0.743 0.547 0.196 0.363 0.294 0.82 0.294 1.373 0 0.552-0.098 1.009-0.294 1.376-0.196 0.362-0.443 0.544-0.743 0.544-0.295 0-0.543-0.182-0.739-0.544-0.196-0.361-0.294-0.81-0.294-1.349m-0.753 0.003c0 0.805 0.189 1.448 0.564 1.929 0.335 0.433 0.742 0.65 1.221 0.65 0.478 0 0.886-0.217 1.222-0.65 0.375-0.481 0.562-1.135 0.562-1.964 0-0.824-0.187-1.478-0.562-1.958-0.336-0.434-0.742-0.653-1.22-0.653-0.474 0-0.884 0.219-1.223 0.653-0.375 0.48-0.564 1.144-0.564 1.993" fill="#161621"/></g></g><g id="g4654" transform="matrix(1.25 0 0 -1.25 -60.087 1005.2)" fill="#161621"><g id="g4656" transform="matrix(.94025 0 0 .94025 99.908 773.18)"><path id="path4658" d="m0 0c-0.329-1.385-1.719-2.244-3.105-1.916-1.387 0.33-2.245 1.72-1.916 3.106 0.329 1.388 1.722 2.245 3.107 1.915 1.386-0.329 2.242-1.719 1.914-3.105" fill="#161621"/></g><g id="g4660" transform="matrix(.94025 0 0 .94025 83.022 772.28)"><path id="path4662" d="m0 0c-0.298-1.262-1.564-2.044-2.828-1.744-1.261 0.299-2.042 1.566-1.742 2.828 0.297 1.263 1.566 2.043 2.829 1.744 1.261-0.299 2.042-1.567 1.741-2.828" fill="#161621"/></g><g id="g4664" transform="matrix(.94025 0 0 .94411 95.876 767.43)"><path id="path4666" d="m0 0c-0.276-4.513-1.249-7.82-3.576-10.496-2.002-2.299-5.159-3.689-8.057-3.1-4.69 0.954-6.471 6.185-5.073 10.383 0.329 0.986 1.482 2.737 0.582 3.682-0.571 0.596-1.98 1.097-2.681 0.647-1.242-0.799-1.733-2.572-2.018-3.909-1.192-5.596 2.145-10.839 7.432-12.661 2.428-0.835 5.177-0.929 7.676-0.333 1.846 0.443 3.849 1.703 5.303 3.058 3.257 3.032 5.33 8.442 4.786 12.948-0.257 2.137-4.245 1.886-4.374-0.219" fill="#161621"/></g></g></g><g id="g4320" transform="translate(17.25 15)"><rect id="rect4240" fill-opacity="0" transform="translate(0 .0000038147)" height="50" width="60" y="25" x="25"/><g id="g3372" transform="matrix(1.1759 0 0 -1.1759 -57.031 957.19)" fill="#bce2e8"><g id="g6644" transform="translate(102.68 761.14)"><path id="path6646" d="m0 0v0.652c0.321 0 0.539 0.037 0.649 0.108 0.201 0.126 0.3 0.329 0.3 0.609 0 0.216-0.071 0.393-0.217 0.527-0.142 0.139-0.327 0.208-0.553 0.208-0.212 0-0.376-0.052-0.491-0.155-0.112-0.105-0.196-0.281-0.25-0.532h-0.76c0.08 0.478 0.24 0.825 0.484 1.048 0.245 0.221 0.587 0.333 1.026 0.333 0.445 0 0.806-0.132 1.083-0.394 0.282-0.261 0.421-0.595 0.421-1.006 0-0.463-0.184-0.822-0.55-1.08 0.421-0.248 0.632-0.648 0.632-1.204 0-0.453-0.152-0.825-0.461-1.112-0.305-0.289-0.699-0.434-1.177-0.434-0.61 0-1.062 0.224-1.355 0.672-0.123 0.189-0.201 0.448-0.234 0.781h0.738c0.039-0.246 0.135-0.433 0.286-0.563 0.153-0.13 0.35-0.194 0.594-0.194 0.247 0 0.45 0.081 0.613 0.245 0.161 0.168 0.242 0.381 0.242 0.639 0 0.341-0.122 0.584-0.364 0.727-0.14 0.081-0.36 0.125-0.656 0.125" fill="#bce2e8"/></g><g id="g6648" transform="translate(107.58 760.34)"><path id="path6650" d="m0 0c0 0.27-0.094 0.496-0.279 0.681-0.187 0.186-0.413 0.282-0.676 0.282-0.269 0-0.492-0.092-0.68-0.277-0.185-0.186-0.278-0.412-0.278-0.676s0.093-0.488 0.278-0.675c0.188-0.186 0.414-0.278 0.682-0.278 0.261 0 0.484 0.092 0.671 0.278 0.186 0.188 0.282 0.41 0.282 0.665m-0.393 3.679 0.561-0.421-1.21-1.642c0.066 0.009 0.122 0.015 0.169 0.019 0.046 0.005 0.082 0.006 0.106 0.006 0.41 0 0.765-0.157 1.066-0.47 0.297-0.311 0.445-0.684 0.445-1.122 0-0.463-0.165-0.859-0.499-1.192-0.329-0.33-0.727-0.495-1.188-0.495-0.457 0-0.862 0.163-1.206 0.489-0.339 0.324-0.507 0.711-0.507 1.156 0 0.399 0.165 0.823 0.494 1.271l1.769 2.401z" fill="#bce2e8"/></g><g id="g6652" transform="translate(109.46 761.35)"><path id="path6654" d="m0 0c0-0.562 0.096-1.029 0.291-1.4 0.195-0.365 0.441-0.547 0.742-0.547 0.3 0 0.547 0.182 0.743 0.547 0.196 0.363 0.294 0.82 0.294 1.373 0 0.552-0.098 1.009-0.294 1.376-0.196 0.362-0.443 0.544-0.743 0.544-0.295 0-0.543-0.182-0.739-0.544-0.196-0.361-0.294-0.81-0.294-1.349m-0.753 0.003c0 0.805 0.189 1.448 0.564 1.929 0.335 0.433 0.742 0.65 1.221 0.65 0.478 0 0.886-0.217 1.222-0.65 0.375-0.481 0.562-1.135 0.562-1.964 0-0.824-0.187-1.478-0.562-1.958-0.336-0.434-0.742-0.653-1.22-0.653-0.474 0-0.884 0.219-1.223 0.653-0.375 0.48-0.564 1.144-0.564 1.993" fill="#bce2e8"/></g></g><g id="g4584" transform="matrix(1.25 0 0 -1.25 -60.087 1005.2)" fill="#bce2e8"><g id="g4586" transform="matrix(.94025 0 0 .94025 99.908 773.18)"><path id="path4588" d="m0 0c-0.329-1.385-1.719-2.244-3.105-1.916-1.387 0.33-2.245 1.72-1.916 3.106 0.329 1.388 1.722 2.245 3.107 1.915 1.386-0.329 2.242-1.719 1.914-3.105" fill="#bce2e8"/></g><g id="g4590" transform="matrix(.94025 0 0 .94025 83.022 772.28)"><path id="path4592" d="m0 0c-0.298-1.262-1.564-2.044-2.828-1.744-1.261 0.299-2.042 1.566-1.742 2.828 0.297 1.263 1.566 2.043 2.829 1.744 1.261-0.299 2.042-1.567 1.741-2.828" fill="#bce2e8"/></g><g id="g4594" transform="matrix(.94025 0 0 .94411 95.876 767.43)"><path id="path4596" d="m0 0c-0.276-4.513-1.249-7.82-3.576-10.496-2.002-2.299-5.159-3.689-8.057-3.1-4.69 0.954-6.471 6.185-5.073 10.383 0.329 0.986 1.482 2.737 0.582 3.682-0.571 0.596-1.98 1.097-2.681 0.647-1.242-0.799-1.733-2.572-2.018-3.909-1.192-5.596 2.145-10.839 7.432-12.661 2.428-0.835 5.177-0.929 7.676-0.333 1.846 0.443 3.849 1.703 5.303 3.058 3.257 3.032 5.33 8.442 4.786 12.948-0.257 2.137-4.245 1.886-4.374-0.219" fill="#bce2e8"/></g></g></g><g id="g4309" transform="translate(193.5 -62)"><rect id="rect4511" fill-opacity="0" transform="translate(0 .0000038147)" height="56" width="56" y="22" x="22"/><rect id="rect4298" rx="8" transform="translate(0 .0000038147)" height="40" width="40" y="30" x="30" fill="#161621"/><g id="g4533" transform="matrix(1.25 0 0 -1.25 -60.087 1005.2)" fill="#fff"><g id="g4535" transform="matrix(.94025 0 0 .94025 99.908 773.18)"><path id="path4537" d="m0 0c-0.329-1.385-1.719-2.244-3.105-1.916-1.387 0.33-2.245 1.72-1.916 3.106 0.329 1.388 1.722 2.245 3.107 1.915 1.386-0.329 2.242-1.719 1.914-3.105" fill="#fff"/></g><g id="g4539" transform="matrix(.94025 0 0 .94025 83.022 772.28)"><path id="path4541" d="m0 0c-0.298-1.262-1.564-2.044-2.828-1.744-1.261 0.299-2.042 1.566-1.742 2.828 0.297 1.263 1.566 2.043 2.829 1.744 1.261-0.299 2.042-1.567 1.741-2.828" fill="#fff"/></g><g id="g4543" transform="matrix(.94025 0 0 .94411 95.876 767.43)"><path id="path4545" d="m0 0c-0.276-4.513-1.249-7.82-3.576-10.496-2.002-2.299-5.159-3.689-8.057-3.1-4.69 0.954-6.471 6.185-5.073 10.383 0.329 0.986 1.482 2.737 0.582 3.682-0.571 0.596-1.98 1.097-2.681 0.647-1.242-0.799-1.733-2.572-2.018-3.909-1.192-5.596 2.145-10.839 7.432-12.661 2.428-0.835 5.177-0.929 7.676-0.333 1.846 0.443 3.849 1.703 5.303 3.058 3.257 3.032 5.33 8.442 4.786 12.948-0.257 2.137-4.245 1.886-4.374-0.219" fill="#fff"/></g></g></g><g id="g4298" transform="translate(125 -62)"><rect id="rect4477" transform="translate(0 .0000038147)" height="56" width="56" y="22" x="22" fill="#bce2e8"/><rect id="rect4457" rx="8" transform="translate(0 .0000038147)" height="40" width="40" y="30" x="30" fill="#fff"/><g id="g4322" transform="matrix(1.25 0 0 -1.25 -60.087 1005.2)" fill="#bce2e8"><g id="g4324" transform="matrix(.94025 0 0 .94025 99.908 773.18)"><path id="path4326" d="m0 0c-0.329-1.385-1.719-2.244-3.105-1.916-1.387 0.33-2.245 1.72-1.916 3.106 0.329 1.388 1.722 2.245 3.107 1.915 1.386-0.329 2.242-1.719 1.914-3.105" fill="#bce2e8"/></g><g id="g4328" transform="matrix(.94025 0 0 .94025 83.022 772.28)"><path id="path4330" d="m0 0c-0.298-1.262-1.564-2.044-2.828-1.744-1.261 0.299-2.042 1.566-1.742 2.828 0.297 1.263 1.566 2.043 2.829 1.744 1.261-0.299 2.042-1.567 1.741-2.828" fill="#bce2e8"/></g><g id="g4332" transform="matrix(.94025 0 0 .94411 95.876 767.43)"><path id="path4334" d="m0 0c-0.276-4.513-1.249-7.82-3.576-10.496-2.002-2.299-5.159-3.689-8.057-3.1-4.69 0.954-6.471 6.185-5.073 10.383 0.329 0.986 1.482 2.737 0.582 3.682-0.571 0.596-1.98 1.097-2.681 0.647-1.242-0.799-1.733-2.572-2.018-3.909-1.192-5.596 2.145-10.839 7.432-12.661 2.428-0.835 5.177-0.929 7.676-0.333 1.846 0.443 3.849 1.703 5.303 3.058 3.257 3.032 5.33 8.442 4.786 12.948-0.257 2.137-4.245 1.886-4.374-0.219" fill="#bce2e8"/></g></g></g><g id="g4286" transform="translate(262 -62)"><rect id="rect4441" transform="translate(0 .0000038147)" height="56" width="56" y="22" x="22" fill="#161621"/><rect id="rect4338" rx="8" transform="translate(0 .0000038147)" height="40" width="40" y="30" x="30" fill="#fff"/><g id="g4306" transform="matrix(1.25 0 0 -1.25 -60.087 1005.2)" fill="#161621"><g id="g4308" transform="matrix(.94025 0 0 .94025 99.908 773.18)"><path id="path4310" d="m0 0c-0.329-1.385-1.719-2.244-3.105-1.916-1.387 0.33-2.245 1.72-1.916 3.106 0.329 1.388 1.722 2.245 3.107 1.915 1.386-0.329 2.242-1.719 1.914-3.105" fill="#161621"/></g><g id="g4312" transform="matrix(.94025 0 0 .94025 83.022 772.28)"><path id="path4314" d="m0 0c-0.298-1.262-1.564-2.044-2.828-1.744-1.261 0.299-2.042 1.566-1.742 2.828 0.297 1.263 1.566 2.043 2.829 1.744 1.261-0.299 2.042-1.567 1.741-2.828" fill="#161621"/></g><g id="g4316" transform="matrix(.94025 0 0 .94411 95.876 767.43)"><path id="path4318" d="m0 0c-0.276-4.513-1.249-7.82-3.576-10.496-2.002-2.299-5.159-3.689-8.057-3.1-4.69 0.954-6.471 6.185-5.073 10.383 0.329 0.986 1.482 2.737 0.582 3.682-0.571 0.596-1.98 1.097-2.681 0.647-1.242-0.799-1.733-2.572-2.018-3.909-1.192-5.596 2.145-10.839 7.432-12.661 2.428-0.835 5.177-0.929 7.676-0.333 1.846 0.443 3.849 1.703 5.303 3.058 3.257 3.032 5.33 8.442 4.786 12.948-0.257 2.137-4.245 1.886-4.374-0.219" fill="#161621"/></g></g></g><g id="g4275" transform="translate(56.5 -62)"><rect id="rect4415" fill-opacity="0" transform="translate(0 .0000038147)" height="56" width="56" y="22" x="22"/><rect id="rect4379" rx="8" transform="translate(0 .0000038147)" height="40" width="40" y="30" x="30" fill="#bce2e8"/><g id="g4399" transform="matrix(1.25 0 0 -1.25 -60.087 1005.2)" fill="#fff"><g id="g4401" transform="matrix(.94025 0 0 .94025 99.908 773.18)"><path id="path4403" d="m0 0c-0.329-1.385-1.719-2.244-3.105-1.916-1.387 0.33-2.245 1.72-1.916 3.106 0.329 1.388 1.722 2.245 3.107 1.915 1.386-0.329 2.242-1.719 1.914-3.105" fill="#fff"/></g><g id="g4405" transform="matrix(.94025 0 0 .94025 83.022 772.28)"><path id="path4407" d="m0 0c-0.298-1.262-1.564-2.044-2.828-1.744-1.261 0.299-2.042 1.566-1.742 2.828 0.297 1.263 1.566 2.043 2.829 1.744 1.261-0.299 2.042-1.567 1.741-2.828" fill="#fff"/></g><g id="g4409" transform="matrix(.94025 0 0 .94411 95.876 767.43)"><path id="path4411" d="m0 0c-0.276-4.513-1.249-7.82-3.576-10.496-2.002-2.299-5.159-3.689-8.057-3.1-4.69 0.954-6.471 6.185-5.073 10.383 0.329 0.986 1.482 2.737 0.582 3.682-0.571 0.596-1.98 1.097-2.681 0.647-1.242-0.799-1.733-2.572-2.018-3.909-1.192-5.596 2.145-10.839 7.432-12.661 2.428-0.835 5.177-0.929 7.676-0.333 1.846 0.443 3.849 1.703 5.303 3.058 3.257 3.032 5.33 8.442 4.786 12.948-0.257 2.137-4.245 1.886-4.374-0.219" fill="#fff"/></g></g></g></g></svg>
